<?xml version="1.0" encoding="utf-8"?>
<!-- Generator: Adobe Illustrator 28.0.0, SVG Export Plug-In . SVG Version: 6.00 Build 0)  -->
<svg version="1.1" id="Camada_1" xmlns="http://www.w3.org/2000/svg" xmlns:xlink="http://www.w3.org/1999/xlink" x="0px" y="0px"
	 viewBox="0 0 423.3 428.6" style="enable-background:new 0 0 423.3 428.6;" xml:space="preserve">
<style type="text/css">
	.st0{fill:#FFFFFF;}
</style>
<g>
	<path class="st0" d="M397.5,210.7c-1.3,1.4-2.4,3-3.9,4.1c-3.1,2.2-7,1.3-11.1-2.2c-14.9-12.7-29.8-25.4-44.7-38.1
		c-41.2-35.1-82.5-70.3-123.7-105.4c-0.6-0.5-1.3-1-2.3-1.8c-0.9,0.7-1.9,1.4-2.8,2.2c-55.9,47.6-111.8,95.2-167.7,142.7
		c-2.1,1.8-4.9,3.1-7.6,3.6c-3.1,0.6-5.5-1.5-6.9-4.3c-1.4-2.7-1.1-5.4,0.6-7.9c0.8-1.2,1.9-2.2,3-3.1
		C88.5,151,146.6,101.5,204.6,52c5.5-4.7,8.7-4.6,14.3,0.2c16.6,14.2,33.3,28.4,50,42.6c0.7,0.6,1.5,1.1,2.6,2
		c0.1-1.4,0.2-2.4,0.2-3.4c0-8.8,0-17.7,0-26.5c0-6.6,3.2-9.8,9.8-9.8c11.5-0.1,23-0.1,34.5,0c6.9,0,10.2,3.4,10.2,10.3
		c0,24.3,0.1,48.6-0.1,72.9c0,2.4,0.8,3.9,2.6,5.5c21.2,18,42.4,36.1,63.4,54.2c2,1.8,3.5,4.2,5.2,6.3
		C397.5,207.8,397.5,209.3,397.5,210.7z M287.8,73.5c0,9.4,0.5,18.5-0.2,27.5c-0.6,7.4,1.7,12.5,7.8,16.6c5,3.4,9.4,7.7,14.6,12.1
		c0-19.2,0-37.6,0-56.2C302.7,73.5,295.5,73.5,287.8,73.5z"/>
	<path class="st0" d="M338.9,221.8c0,2.2,0,3.6,0,5c0,47,0,94.1,0,141.1c0,1.7,0,3.4-0.2,5.1c-0.5,3.7-3.1,6.4-6.9,6.9
		c-1.4,0.2-2.9,0.2-4.3,0.2c-77.3,0-154.6,0-231.8,0c-0.8,0-1.7,0-2.5,0c-5.3-0.3-8.4-3.3-8.7-8.7c-0.1-1.2,0-2.4,0-3.6
		c0-46.9,0-93.8,0-140.8c0-1.4,0-2.8,0-5.1c-3.9,3.3-6.9,6.1-10.2,8.6c-3.6,2.7-8.1,2.3-10.8-0.8c-2.8-3.1-2.6-7.5,0.4-10.9
		c0.7-0.8,1.6-1.5,2.4-2.2c20.3-17.4,40.6-34.7,60.9-52.1c25.7-22,51.5-44,77.2-66c6-5.1,8.9-5.1,14.9,0
		c46.2,39.5,92.5,79,138.7,118.6c1.3,1.2,2.6,2.6,3.5,4.1c1.6,3,0.6,7-2,9.2c-2.7,2.3-6.6,2.7-9.7,0.4
		C346.1,228.1,342.9,225.1,338.9,221.8z M323,363.8c0-1.4,0-2.5,0-3.6c0-49.7,0-99.4-0.1-149.2c0-1.7-1.1-4-2.4-5.1
		c-28.9-24.8-57.9-49.5-86.9-74.2c-7.2-6.2-14.5-12.3-21.7-18.5c-0.6,0.4-0.9,0.5-1.2,0.8c-36.1,30.7-72.2,61.5-108.2,92.3
		c-1.2,1-1.9,3.3-1.9,5c-0.1,49.6-0.1,99.2-0.1,148.8c0,1.2,0.1,2.3,0.2,3.6c21.1,0,41.9,0,63.1,0c0-1.7,0-3.1,0-4.5
		c0-28.8,0-57.6,0-86.4c0-8.9,2.3-11.3,11.1-11.3c24.6,0,49.1,0,73.7,0c8.8,0,11.2,2.4,11.2,11.1c0,28.9,0,57.8,0,86.7
		c0,1.4,0,2.8,0,4.4C280.9,363.8,301.7,363.8,323,363.8z M179.8,363.7c21.5,0,42.5,0,63.6,0c0-28.8,0-57.4,0-86
		c-21.3,0-42.4,0-63.6,0C179.8,306.5,179.8,335,179.8,363.7z"/>
</g>
</svg>
