<?xml version="1.0" encoding="utf-8"?>
<!-- Generator: Adobe Illustrator 28.0.0, SVG Export Plug-In . SVG Version: 6.00 Build 0)  -->
<svg version="1.1" id="Camada_1" xmlns="http://www.w3.org/2000/svg" xmlns:xlink="http://www.w3.org/1999/xlink" x="0px" y="0px"
	 viewBox="0 0 423.3 428.6" style="enable-background:new 0 0 423.3 428.6;" xml:space="preserve">
<style type="text/css">
	.st0{fill:#FFFFFF;}
</style>
<g>
	<path class="st0" d="M54.4,31.4c60.1,0,120.3,0,180.4,0c0,14.9,0,29.8,0,45.2c11.6,0,22.6,0,33.9,0c0,34,0,67.5,0,101.1
		c15.1,0,29.9,0,45.1,0c0-15,0-29.8,0-44.6c30.2,0,60,0,89.8,0c0,93.9,0,187.6,0,281.5c-127.8,0-255.4,0-383,0
		c0-112.8,0-225.6,0-338.3c11.1,0,22.3,0,33.7,0C54.4,61.2,54.4,46.3,54.4,31.4z M246,99.3c-67.8,0-135.2,0-202.5,0
		c0,82.7,0,165.1,0,247.5c18.8,0,37.3,0,56.2,0c0-18.8,0-37.3,0-56c30.2,0,60,0,90.2,0c0,18.8,0,37.4,0,56c19,0,37.5,0,56.1,0
		C246,264.2,246,181.9,246,99.3z M381.4,200.8c-37.7,0-75,0-112.4,0c0,63.9,0,127.5,0,191.1c37.6,0,75,0,112.4,0
		C381.4,328.1,381.4,264.6,381.4,200.8z M122.5,313.5c0,26.3,0,52.4,0,78.4c15.1,0,29.8,0,44.6,0c0-26.3,0-52.3,0-78.4
		C152.1,313.5,137.3,313.5,122.5,313.5z M77.2,76.2c45.1,0,90,0,134.8,0c0-7.5,0-14.8,0-22c-45.1,0-89.9,0-134.8,0
		C77.2,61.7,77.2,68.8,77.2,76.2z M99.3,392c0-7.5,0-14.7,0-22.1c-18.8,0-37.2,0-55.8,0c0,7.5,0,14.7,0,22.1
		C62.2,392,80.7,392,99.3,392z M190.1,369.8c0,7.5,0,14.8,0,22.2c18.7,0,37.2,0,55.8,0c0-7.5,0-14.7,0-22.2
		C227.2,369.8,208.8,369.8,190.1,369.8z M336.6,177.7c15.2,0,30,0,44.6,0c0-7.5,0-14.7,0-21.9c-15,0-29.7,0-44.6,0
		C336.6,163.2,336.6,170.4,336.6,177.7z"/>
	<path class="st0" d="M111.1,121.7c7.5,0,14.6,0,22,0c0,11.1,0,22.1,0,33.4c-7.2,0-14.5,0-22,0C111.1,144.1,111.1,133.1,111.1,121.7
		z"/>
	<path class="st0" d="M111.1,178.2c7.6,0,14.7,0,22.1,0c0,11.2,0,22.2,0,33.4c-7.4,0-14.6,0-22.1,0
		C111.1,200.6,111.1,189.6,111.1,178.2z"/>
	<path class="st0" d="M133.3,234.4c0,11.4,0,22.3,0,33.4c-7.4,0-14.6,0-22.1,0c0-11.1,0-22.2,0-33.4
		C118.6,234.4,125.8,234.4,133.3,234.4z"/>
	<path class="st0" d="M223.3,155.3c-7.4,0-14.5,0-22,0c0-11.1,0-22.1,0-33.4c7.2,0,14.4,0,22,0C223.3,132.9,223.3,143.9,223.3,155.3
		z"/>
	<path class="st0" d="M65.9,155.2c0-11.2,0-22.1,0-33.3c7.3,0,14.6,0,22.1,0c0,11.1,0,22.1,0,33.3C80.7,155.2,73.4,155.2,65.9,155.2
		z"/>
	<path class="st0" d="M156.3,121.8c7.3,0,14.6,0,22.1,0c0,11.2,0,22.1,0,33.3c-7.3,0-14.6,0-22.1,0
		C156.3,144.1,156.3,133.1,156.3,121.8z"/>
	<path class="st0" d="M88,211.6c-7.5,0-14.7,0-22.1,0c0-11.1,0-22,0-33.2c7.3,0,14.6,0,22.1,0C88,189.4,88,200.4,88,211.6z"/>
	<path class="st0" d="M178.4,211.7c-7.5,0-14.7,0-22.1,0c0-11.2,0-22.2,0-33.4c7.4,0,14.6,0,22.1,0
		C178.4,189.4,178.4,200.3,178.4,211.7z"/>
	<path class="st0" d="M223.4,211.7c-7.4,0-14.6,0-22.1,0c0-11.1,0-22.1,0-33.4c7.3,0,14.6,0,22.1,0
		C223.4,189.4,223.4,200.3,223.4,211.7z"/>
	<path class="st0" d="M65.9,267.9c0-11.1,0-22.1,0-33.3c7.3,0,14.6,0,22.1,0c0,11,0,22.1,0,33.3C80.6,267.9,73.4,267.9,65.9,267.9z"
		/>
	<path class="st0" d="M178.3,267.9c-7.4,0-14.6,0-22,0c0-11.2,0-22.2,0-33.4c7.3,0,14.5,0,22,0C178.3,245.5,178.3,256.5,178.3,267.9
		z"/>
	<path class="st0" d="M223.3,268c-7.4,0-14.6,0-22,0c0-11.2,0-22.2,0-33.4c7.3,0,14.5,0,22,0C223.3,245.5,223.3,256.5,223.3,268z"/>
	<path class="st0" d="M291.5,223.2c7.7,0,14.8,0,22.1,0c0,11.2,0,22.2,0,33.4c-7.4,0-14.6,0-22.1,0
		C291.5,245.5,291.5,234.4,291.5,223.2z"/>
	<path class="st0" d="M313.5,313c-7.4,0-14.5,0-22,0c0-11.1,0-22,0-33.3c7.3,0,14.5,0,22,0C313.5,290.8,313.5,301.8,313.5,313z"/>
	<path class="st0" d="M313.5,336.1c0,11.2,0,22.2,0,33.4c-7.4,0-14.6,0-22.1,0c0-11.1,0-22.1,0-33.4
		C298.8,336.1,306.1,336.1,313.5,336.1z"/>
	<path class="st0" d="M336.5,256.6c0-11.2,0-22.1,0-33.3c7.4,0,14.6,0,22.1,0c0,11.1,0,22.1,0,33.3
		C351.4,256.6,344.2,256.6,336.5,256.6z"/>
	<path class="st0" d="M336.7,279.6c7.3,0,14.5,0,21.9,0c0,11.1,0,22.1,0,33.4c-7.3,0-14.4,0-21.9,0C336.7,302,336.7,291,336.7,279.6
		z"/>
	<path class="st0" d="M358.7,336.1c0,11.1,0,22,0,33.3c-7.3,0-14.5,0-22.1,0c0-11,0-22,0-33.3C344,336.1,351.3,336.1,358.7,336.1z"
		/>
</g>
</svg>
